<?xml version="1.0" encoding="UTF-8"?>
<svg id="splash-net_maui" xmlns="http://www.w3.org/2000/svg" viewBox="0 0 456 456">
    <defs>
        <style>
            .cls-1 {
            fill: #fff;
            }
        </style>
    </defs>
    <path id="SharpScan-icon" class="cls-1" d="M209.99,130.08h-25.47c-15.66,0-28.36,26.26-28.36,58.65,0,18.58,4.18,35.15,10.7,45.89l-68.02,15.56,20.55,14.28-26.39,66.78,112.93-6.64,32.06,22.28h0l46.61-26.91,78.39-4.61-27.85-24.57,25.8-14.9-54.22-19.01c.07-.49.1-.99.1-1.49V122.08c0-6.15-5.02-11.49-11.16-11.88,0,0-15.38-.95-15.6-.95-5.09,0-8.65-.87-17.38,1.88l-52.71,18.95ZM295.35,115.45c3.37.21,6.22,3.24,6.22,6.63v133.3c0,1.21-.37,2.37-.99,3.38-1.12,1.81-3.06,3.12-5.24,3.25,0,0-15.16.94-15.28.94-2.85,0-5.03-2.08-5.19-4.9,0-.12-.02-12.34-.02-12.34v-125.92c0-2.99,2.24-5.25,5.21-5.25l15.28.94ZM255.56,127.7c3.4,0,6.14,5.69,6.14,12.71s-2.75,12.71-6.14,12.71-6.14-5.69-6.14-12.71,2.75-12.71,6.14-12.71ZM227.18,134.89c5.54,0,11.27,5.27,15.71,14.46,5.04,10.44,7.83,24.42,7.83,39.38s-2.78,28.94-7.83,39.38c-.95,1.96-1.95,3.73-3,5.32-.64.97-3.07,4.5-5.82,6.5-2.3,1.68-4.6,2.64-6.9,2.64h-31.4c.11-.11.23-.22.35-.33,1.88-1.75,3.37-4.1,5.29-6.42,2.88-3.49,4.77-9.25,5.18-10.29,3.93-10.06,6.28-22.86,6.28-36.81,0-24.11-7.04-44.83-17.09-53.84h31.4ZM175.3,224.96c-4.52-9.34-7.11-22.55-7.11-36.24s2.59-26.9,7.11-36.24c3.68-7.62,7.53-10.39,9.22-10.39s5.37,2.64,8.97,9.88c-.06,0-.13,0-.2,0-8.79,0-15.92,16.45-15.92,36.75s7.13,36.75,15.92,36.75c.07,0-1.12,2.48-1.77,3.5-.88,1.39-1.75,2.53-2.57,3.43-1.88,2.08-3.49,2.94-4.43,2.94-.63,0-1.54-.42-2.68-1.27-2.86-2.13-5.12-6.18-6.54-9.12ZM108.91,323.72l17.59-54.32,17.01,11.83-5.6,32.34,18.31-.95,1.43-21.55,39.88,27.71-88.62,4.96ZM238.14,333.85l-126.87-83.14,57.29-13.5c1.56,2.19,3.23,4.08,4.99,5.61l-41.52,10.43,6.77,4.1,40.97-10.8c1.55.54,3.13.82,4.75.82h21.22l-56.87,16.08,7.83,4.75h0l60.78-18.13,13.79,4.97-62.85,20.27,9.17,5.56h0l64.28-22,15.67,5.65-66.14,24.73h0l10.88,6.6h0l69.1-27.66c3.27.3,9.15,0,9.39-.01l14.91-.93c4.3-.27,8.05-2.98,9.91-6.69l40.65,14.66-108.1,58.62ZM329.08,294.28l17.22,16.15-50.05,2.8,32.83-18.95ZM231.94,313.83l-13.12-7.96,87.44-38.75,12.89,4.86-87.2,41.85Z"/>
</svg>